<svg xmlns="http://www.w3.org/2000/svg" width="24.89" height="23.879" viewBox="0 0 24.89 23.879">
  <g id="Group_397" data-name="Group 397" transform="translate(-306.11 -815.121)">
    <circle id="Ellipse_581" data-name="Ellipse 581" cx="9" cy="9" r="9" transform="translate(313 821)" fill="#0461db" opacity="0.174"/>
    <g id="Group_12" data-name="Group 12" transform="translate(-322.787 586.161)">
      <path id="Path_25" data-name="Path 25" d="M642.276,240.372a5.706,5.706,0,1,0-5.706-5.706A5.712,5.712,0,0,0,642.276,240.372Zm0-10.131a4.425,4.425,0,1,1-4.425,4.425A4.43,4.43,0,0,1,642.276,230.241Z" transform="translate(-4.397 0)" fill="#3e64ff"/>
      <path id="Path_26" data-name="Path 26" d="M642.791,261.574h-9.823a4.076,4.076,0,0,0-4.071,4.071v.407a4.076,4.076,0,0,0,4.071,4.071h9.823a4.076,4.076,0,0,0,4.071-4.071v-.407A4.076,4.076,0,0,0,642.791,261.574Zm2.79,4.478a2.793,2.793,0,0,1-2.79,2.79h-9.823a2.794,2.794,0,0,1-2.79-2.79v-.407a2.794,2.794,0,0,1,2.79-2.79h9.823a2.793,2.793,0,0,1,2.79,2.79Z" transform="translate(0 -18.689)" fill="#3e64ff"/>
    </g>
  </g>
</svg>
