<svg xmlns="http://www.w3.org/2000/svg" width="60" height="56" viewBox="0 0 60 56">
  <g id="Group_371" data-name="Group 371" transform="translate(-222 -33)">
    <rect id="Rectangle_213" data-name="Rectangle 213" width="60" height="56" rx="10" transform="translate(222 33)" fill="#03c494"/>
    <path id="Path_73" data-name="Path 73" d="M649.614,678.941H646.2c2.3-1.214,3.38-2.768,3.206-4.631a3.292,3.292,0,0,0-2.273-2.809c-1.69-.553-3.408-.142-5.251,1.258a24.627,24.627,0,0,0-3.569,3.465A11.524,11.524,0,0,0,637,678.047l-.106.172c-.059-.11-.117-.219-.175-.329a9.236,9.236,0,0,0-1.295-1.966,24.586,24.586,0,0,0-3.568-3.465c-1.842-1.4-3.559-1.81-5.251-1.259a3.291,3.291,0,0,0-2.273,2.809c-.188,2.021,1.1,3.679,3.82,4.933H623.49a2.466,2.466,0,0,0-2.464,2.464v3.284A2.459,2.459,0,0,0,622.678,687c0,.032-.006.064-.009.1a40.251,40.251,0,0,0-.2,4.8c.019.645.044,1.4.109,2.144a10.36,10.36,0,0,0,1.455,4.906,7.029,7.029,0,0,0,5.345,2.779,63.716,63.716,0,0,0,7.085.532h.167a49.846,49.846,0,0,0,7.087-.569,9.763,9.763,0,0,0,5.081-1.826c1.507-1.3,1.788-3.208,1.947-5.047a36.084,36.084,0,0,0,.028-7.823.818.818,0,0,0-.031-.132,2.457,2.457,0,0,0,1.338-2.179v-3.284A2.466,2.466,0,0,0,649.614,678.941Zm.733,2.464v3.284a.733.733,0,0,1-.733.732H637.443l.033-4.749h12.138A.734.734,0,0,1,650.347,681.405Zm-7.42-7.266c1.395-1.06,2.526-1.365,3.666-.991a1.563,1.563,0,0,1,1.089,1.324c.116,1.252-.9,2.36-3.018,3.292a28.047,28.047,0,0,1-3.284,1.178h-2.9a9.735,9.735,0,0,1,1.132-1.576A23.011,23.011,0,0,1,642.927,674.139Zm-10.462,4.532a27.764,27.764,0,0,1-3.39-1.21c-2.119-.932-3.134-2.04-3.018-3.292a1.562,1.562,0,0,1,1.089-1.324c1.141-.374,2.272-.068,3.665.991a23.047,23.047,0,0,1,3.312,3.226,7.535,7.535,0,0,1,1.067,1.635c.042.079.087.162.13.245h-2.433A.865.865,0,0,0,632.465,678.671Zm-9.708,2.735a.733.733,0,0,1,.733-.733h12.255l-.033,4.749H623.49a.733.733,0,0,1-.733-.732Zm2.712,16.585A8.8,8.8,0,0,1,624.3,693.9c-.06-.7-.085-1.424-.1-2.045a38.629,38.629,0,0,1,.2-4.6c0-.034.007-.068.01-.1h11.3l-.092,13.356c-2-.057-4-.261-6.034-.5C627.512,699.774,626.246,699.15,625.469,697.99Zm23.55-3.317c-.134,1.546-.339,3.007-1.355,3.887a8.339,8.339,0,0,1-4.192,1.421,51.611,51.611,0,0,1-6.131.541l.092-13.369h11.621c0,.025,0,.05,0,.074A34.641,34.641,0,0,1,649.019,694.673Z" transform="translate(-385 -625.741)" fill="#fff"/>
  </g>
</svg>
