<svg xmlns="http://www.w3.org/2000/svg" width="60" height="56" viewBox="0 0 60 56">
  <g id="Group_394" data-name="Group 394" transform="translate(-218 -33)">
    <rect id="Rectangle_213" data-name="Rectangle 213" width="60" height="56" rx="10" transform="translate(218 33)" fill="#3ce5b7"/>
    <g id="Group_32" data-name="Group 32" transform="translate(-389 -443.688)">
      <path id="Path_78" data-name="Path 78" d="M644.11,490.908H629.762a5.248,5.248,0,0,0-5.242,5.242v17.979a5.248,5.248,0,0,0,5.242,5.242h9.05a7.345,7.345,0,0,0,5.5-2.479l3.2-3.616a7.339,7.339,0,0,0,1.842-4.864V496.15A5.247,5.247,0,0,0,644.11,490.908Zm-14.348,26.717a3.5,3.5,0,0,1-3.5-3.5V496.15a3.5,3.5,0,0,1,3.5-3.5H644.11a3.5,3.5,0,0,1,3.5,3.5v12.263a5.654,5.654,0,0,1-.065.814.866.866,0,0,0-.267-.046h-4.944a2.565,2.565,0,0,0-2.55,2.5l-.126,5.877a5.525,5.525,0,0,1-.84.072ZM643,515.735a5.581,5.581,0,0,1-1.593,1.24l.113-5.261a.809.809,0,0,1,.8-.787h4.677a5.586,5.586,0,0,1-.8,1.193Z" fill="#004275"/>
      <path id="Path_79" data-name="Path 79" d="M635.9,507.291h10.818a.873.873,0,1,0,0-1.746H635.9a.873.873,0,0,0,0,1.746Z" transform="translate(-4.392 -6.118)" fill="#004275"/>
      <path id="Path_80" data-name="Path 80" d="M635.9,513.821h10.818a.873.873,0,1,0,0-1.746H635.9a.873.873,0,0,0,0,1.746Z" transform="translate(-4.392 -8.847)" fill="#004275"/>
      <path id="Path_81" data-name="Path 81" d="M640.471,518.6H635.9a.873.873,0,0,0,0,1.746h4.569a.873.873,0,1,0,0-1.746Z" transform="translate(-4.392 -11.576)" fill="#004275"/>
    </g>
  </g>
</svg>
