<svg xmlns="http://www.w3.org/2000/svg" width="60" height="56" viewBox="0 0 60 56">
  <g id="Group_393" data-name="Group 393" transform="translate(-218 -33)">
    <rect id="Rectangle_213" data-name="Rectangle 213" width="60" height="56" rx="10" transform="translate(218 33)" fill="#3ce5b7"/>
    <path id="Path_36" data-name="Path 36" d="M997.92,552.548c0-.033-.006-.065-.009-.1a32.808,32.808,0,0,0-.395-4.651c-.481-2.961-1.764-5.041-3.814-6.183a18.738,18.738,0,0,0-7.5-1.867,5.156,5.156,0,0,0-5.169-4.915h-4.711a5.18,5.18,0,0,0-5.169,4.989c-.6.075-1.211.157-1.82.251a19.482,19.482,0,0,0-3.609.851h0a7.773,7.773,0,0,0-3.486,2.3,9.9,9.9,0,0,0-1.815,5.618c-.1,1.112-.19,2.354-.241,3.653,0,.017-.006.034-.006.052s0,.017,0,.026c-.034.913-.051,1.849-.024,2.807.03,1.083.066,1.994.144,2.919a14.283,14.283,0,0,0,1.916,6.635c1.849,2.834,4.913,3.5,7.056,3.754a82.822,82.822,0,0,0,9.425.726h.209a64.652,64.652,0,0,0,9.43-.776c2.448-.358,4.957-.905,6.726-2.475,1.973-1.752,2.342-4.323,2.552-6.807.175-2.085.333-4.373.3-6.724C997.914,552.605,997.92,552.578,997.92,552.548Zm-21.6-15.577h4.711a3.019,3.019,0,0,1,2.993,2.578,61.043,61.043,0,0,0-10.7.036A3.036,3.036,0,0,1,976.324,536.971Zm-12.436,7.613a5.727,5.727,0,0,1,2.564-1.649,17.438,17.438,0,0,1,3.209-.749,59.5,59.5,0,0,1,15.406-.4l.535.053c2.448.239,4.979.486,7.062,1.646,1.45.808,2.374,2.375,2.745,4.66a28.992,28.992,0,0,1,.33,3.336h-9.66v-1.017a1.068,1.068,0,1,0-2.136,0v1.017H973.282v-1.017a1.068,1.068,0,0,0-2.136,0v1.017h-8.775c.051-.857.114-1.686.182-2.448A8.011,8.011,0,0,1,963.888,544.584Zm31.6,14.6c-.18,2.136-.456,4.158-1.841,5.387-1.416,1.256-3.641,1.669-5.615,1.958a61.712,61.712,0,0,1-9.32.754,80.946,80.946,0,0,1-9.183-.711c-2.767-.328-4.469-1.191-5.519-2.8a12.356,12.356,0,0,1-1.575-5.648c-.074-.874-.109-1.75-.138-2.8-.016-.574-.017-1.144-.008-1.706h8.862v1.718a1.068,1.068,0,0,0,2.136,0v-1.718h10.659v1.718a1.068,1.068,0,0,0,2.136,0v-1.718h9.7C995.765,555.549,995.629,557.437,995.483,559.181Z" transform="translate(-730.731 -490.71)" fill="#004275"/>
  </g>
</svg>
