<svg xmlns="http://www.w3.org/2000/svg" width="84.64" height="85.781" viewBox="0 0 84.64 85.781">
  <g id="Group_391" data-name="Group 391" transform="translate(-21.04 -4.295)">
    <circle id="Ellipse_258" data-name="Ellipse 258" cx="32.927" cy="32.927" r="32.927" transform="translate(39.826 8.71)" fill="#3e64ff" opacity="0.08"/>
    <g id="upload" transform="translate(20.786 4.295)">
      <path id="Path_654" data-name="Path 654" d="M44.2,78.611l-21.882.121a6.132,6.132,0,0,1-6.162-6.1l-.262-54.742a6.153,6.153,0,0,1,.376-2.148,6.143,6.143,0,0,0-4.015,5.787l.262,54.742a6.133,6.133,0,0,0,6.162,6.1l25.68-.141a19.589,19.589,0,0,1-.183-2.675C44.175,79.238,44.184,78.924,44.2,78.611Zm0,0" transform="translate(-9.817 -12.875)" fill="#d4e1f4"/>
      <g id="Group_382" data-name="Group 382" transform="translate(0.253 0)">
        <path id="Path_655" data-name="Path 655" d="M3.034,69.219a8.439,8.439,0,0,0,5.98,2.46h.042l26.356-.149L35.4,69.346,9.044,69.5A6.315,6.315,0,0,1,2.7,63.211L2.437,8.652A6.315,6.315,0,0,1,8.721,2.307l25.251-.121.049,10.251a8.508,8.508,0,0,0,8.5,8.457h.041l10.252-.049.141,25.688,2.183-.012-.146-26.5V19.7a1.092,1.092,0,0,0-.324-.771L35.865.352A1.09,1.09,0,0,0,35.2.041L34.809,0c-.036,0-.072,0-.109,0L8.71.125A8.5,8.5,0,0,0,.253,8.662l.262,54.56A8.445,8.445,0,0,0,3.034,69.219ZM42.549,18.711A6.325,6.325,0,0,1,36.2,12.427l-.041-8.712L51.292,18.669Zm0,0" transform="translate(-0.253 0)" fill="#555574"/>
        <path id="Path_656" data-name="Path 656" d="M140.318,221.52a1.092,1.092,0,0,0,0,2.183h3.7a1.092,1.092,0,0,0,0-2.183Zm0,0" transform="translate(-113.943 -181.219)" fill="#555574"/>
        <path id="Path_657" data-name="Path 657" d="M93.7,171.724a1.092,1.092,0,0,0-1.092-1.092H61.873a1.092,1.092,0,1,0,0,2.183H92.608A1.091,1.091,0,0,0,93.7,171.724Zm0,0" transform="translate(-49.769 -139.59)" fill="#555574"/>
        <path id="Path_658" data-name="Path 658" d="M61.873,221.52a1.092,1.092,0,1,0,0,2.183h9.58a1.092,1.092,0,1,0,0-2.183Zm0,0" transform="translate(-49.769 -181.219)" fill="#555574"/>
      </g>
      <path id="Path_659" data-name="Path 659" d="M256.544,320.009l4.533-4.218v12.89a1.092,1.092,0,1,0,2.183,0v-12.89l4.532,4.218a1.091,1.091,0,1,0,1.487-1.6l-6.368-5.926a1.091,1.091,0,0,0-1.487,0l-6.368,5.926a1.091,1.091,0,1,0,1.487,1.6Zm0,0" transform="translate(-208.162 -255.395)" fill="#3e64ff"/>
      <path id="Path_660" data-name="Path 660" d="M204.9,290.086a20.173,20.173,0,1,0-19.532-15.044A20.172,20.172,0,0,0,204.9,290.086Zm0-38.205a18.027,18.027,0,1,1-18.011,18.011A18.027,18.027,0,0,1,204.9,251.881Zm0,0" transform="translate(-150.891 -204.305)" fill="#3e64ff"/>
    </g>
  </g>
</svg>
