<svg xmlns="http://www.w3.org/2000/svg" width="84.181" height="87.961" viewBox="0 0 84.181 87.961">
  <g id="Group_390" data-name="Group 390" transform="translate(-9.955 -0.955)">
    <circle id="Ellipse_258" data-name="Ellipse 258" cx="32.927" cy="32.927" r="32.927" transform="translate(28.282 0.955)" fill="#3e64ff" opacity="0.08"/>
    <g id="search" transform="translate(9.491 1.996)">
      <path id="Path_648" data-name="Path 648" d="M45.761,79.6l-22.153.122a6.208,6.208,0,0,1-6.238-6.178l-.265-55.42a6.2,6.2,0,0,1,.381-2.176A6.218,6.218,0,0,0,13.422,21.8l.265,55.42A6.207,6.207,0,0,0,19.925,83.4l26-.143a19.926,19.926,0,0,1-.186-2.707C45.737,80.231,45.746,79.914,45.761,79.6Zm0,0" transform="translate(-10.571 -13.008)" fill="#d4e1f4"/>
      <g id="Group_381" data-name="Group 381" transform="translate(0.465 0)">
        <path id="Path_649" data-name="Path 649" d="M9.333,72.566h.042l26.683-.151-.013-2.21-26.681.151A6.394,6.394,0,0,1,2.94,64L2.675,8.759A6.391,6.391,0,0,1,9.036,2.336L34.6,2.213l.05,10.378a8.6,8.6,0,0,0,8.6,8.562h.042l10.379-.05.143,25.822,2.21-.012-.147-26.649v-.317a1.106,1.106,0,0,0-.328-.781L36.516.356a1.107,1.107,0,0,0-.672-.314l-.4-.037c-.037,0-.074,0-.111-.005L9.026.126A8.612,8.612,0,0,0,.465,8.77L.729,64A8.614,8.614,0,0,0,9.333,72.566ZM43.284,18.943h-.032a6.393,6.393,0,0,1-6.392-6.361l-.042-8.82L52.136,18.9Zm0,0" transform="translate(-0.465 0)" fill="#555574"/>
        <path id="Path_650" data-name="Path 650" d="M140.539,221.52a1.105,1.105,0,1,0,0,2.21h3.748a1.105,1.105,0,0,0,0-2.21Zm0,0" transform="translate(-113.838 -180.72)" fill="#555574"/>
        <path id="Path_651" data-name="Path 651" d="M94.321,171.742a1.1,1.1,0,0,0-1.105-1.105H62.1a1.105,1.105,0,0,0,0,2.21H93.216A1.1,1.1,0,0,0,94.321,171.742Zm0,0" transform="translate(-49.847 -139.208)" fill="#555574"/>
        <path id="Path_652" data-name="Path 652" d="M62.1,221.52a1.105,1.105,0,0,0,0,2.21h9.7a1.105,1.105,0,1,0,0-2.21Zm0,0" transform="translate(-49.847 -180.72)" fill="#555574"/>
      </g>
      <path id="Path_653" data-name="Path 653" d="M215.486,282.549l6.9,6.9a1.1,1.1,0,0,0,1.563-1.563l-6.931-6.932a19.562,19.562,0,1,0-1.532,1.594Zm-30.6-14.292A17.313,17.313,0,1,1,202.2,285.57a17.313,17.313,0,0,1-17.313-17.313Zm0,0" transform="translate(-148.594 -202.853)" fill="#3e64ff"/>
    </g>
  </g>
</svg>
