<svg xmlns="http://www.w3.org/2000/svg" width="84.932" height="81.763" viewBox="0 0 84.932 81.763">
  <g id="Group_389" data-name="Group 389" transform="translate(-2.847 12.634)">
    <circle id="Ellipse_258" data-name="Ellipse 258" cx="32.927" cy="32.927" r="32.927" transform="translate(21.925)" fill="#3e64ff" opacity="0.075"/>
    <g id="clipboard" transform="translate(2.847 -12.634)">
      <path id="Path_509" data-name="Path 509" d="M164.706,17.436v-3.05A5.092,5.092,0,0,1,168.094,9.6a5.081,5.081,0,0,0-6.777,4.791v3.05a1.016,1.016,0,0,1-1.017,1.017h3.388A1.016,1.016,0,0,0,164.706,17.436Zm0,0" transform="translate(-133.194 -7.728)" fill="#d4e1f4"/>
      <path id="Path_510" data-name="Path 510" d="M100.3,63.3h3.388v6.1H100.3Zm0,0" transform="translate(-83.359 -52.58)" fill="#d4e1f4"/>
      <path id="Path_511" data-name="Path 511" d="M60.076,143.42V89.064a.677.677,0,0,1,.678-.678H57.365a.677.677,0,0,0-.678.678V143.42a.677.677,0,0,0,.678.678h3.388A.677.677,0,0,1,60.076,143.42Zm0,0" transform="translate(-47.134 -73.412)" fill="#d4e1f4"/>
      <path id="Path_512" data-name="Path 512" d="M279.73,434.073h.656a1.017,1.017,0,0,1-.244-.03A3.076,3.076,0,0,1,279.73,434.073Zm0,0" transform="translate(-232.39 -360.508)" fill="#d4e1f4"/>
      <path id="Path_513" data-name="Path 513" d="M13.689,104.969V35.677A2.374,2.374,0,0,1,16.061,33.3H12.673A2.374,2.374,0,0,0,10.3,35.677v69.293a2.375,2.375,0,0,0,2.372,2.372h3.388A2.375,2.375,0,0,1,13.689,104.969Zm0,0" transform="translate(-8.607 -27.662)" fill="#d4e1f4"/>
      <g id="Group_356" data-name="Group 356" transform="translate(0)">
        <path id="Path_514" data-name="Path 514" d="M65.1,26.179a1.016,1.016,0,0,0,1.017-1.017V8.325A4.344,4.344,0,0,0,61.78,3.987H39.524a6.994,6.994,0,0,0-12.629,0H4.64A4.344,4.344,0,0,0,.3,8.325v69.1A4.345,4.345,0,0,0,4.64,81.763H61.78a4.344,4.344,0,0,0,4.339-4.337V35.266a1.017,1.017,0,0,0-2.033,0V77.425a2.309,2.309,0,0,1-2.306,2.3H4.64a2.309,2.309,0,0,1-2.306-2.3V8.325A2.308,2.308,0,0,1,4.64,6.02H26.283A7.093,7.093,0,0,0,26.213,7V8.97H16.267a1.016,1.016,0,0,0-1.017,1.017v3.149H10.683a2.681,2.681,0,0,0-2.677,2.678V69.937a2.681,2.681,0,0,0,2.677,2.677H47.067a3.141,3.141,0,0,0,.4-.03,1.053,1.053,0,0,0,.241.03,1.014,1.014,0,0,0,.765-.349,3.023,3.023,0,0,0,.72-.533L57.532,63.4a2.992,2.992,0,0,0,.881-2.128V40.329a1.017,1.017,0,1,0-2.033,0V61.036H51.033a4.343,4.343,0,0,0-4.339,4.338v5.207H10.683a.646.646,0,0,1-.644-.645V15.814a.646.646,0,0,1,.644-.645h4.568v2.791a1.016,1.016,0,0,0,1.017,1.017H50.153a1.017,1.017,0,0,0,1.017-1.017V15.168h4.567a.646.646,0,0,1,.645.645V30.225a1.017,1.017,0,1,0,2.033,0V15.814a2.682,2.682,0,0,0-2.678-2.678H51.169V9.986A1.016,1.016,0,0,0,50.153,8.97H40.206V7a7.093,7.093,0,0,0-.069-.977H61.78a2.308,2.308,0,0,1,2.306,2.306V25.163A1.016,1.016,0,0,0,65.1,26.179ZM48.727,65.374a2.308,2.308,0,0,1,2.306-2.305h3.952l-6.257,6.257ZM49.136,11v5.94H17.284V11H27.23a1.017,1.017,0,0,0,1.017-1.017V7a4.964,4.964,0,1,1,9.926,0v2.99A1.017,1.017,0,0,0,39.189,11Zm0,0" transform="translate(-0.301 0)" fill="#555574"/>
        <path id="Path_515" data-name="Path 515" d="M268.3,161.949h-4.339a1.017,1.017,0,1,0,0,2.033H268.3a1.017,1.017,0,1,0,0-2.033Zm0,0" transform="translate(-218.445 -134.512)" fill="#555574"/>
        <path id="Path_516" data-name="Path 516" d="M167.411,162.966a1.016,1.016,0,0,0-1.017-1.017H151.177a1.017,1.017,0,1,0,0,2.033h15.217A1.016,1.016,0,0,0,167.411,162.966Zm0,0" transform="translate(-124.771 -134.512)" fill="#555574"/>
        <path id="Path_517" data-name="Path 517" d="M89.559,163.982h6.472a1.017,1.017,0,1,0,0-2.033H89.559a1.017,1.017,0,1,0,0,2.033Zm0,0" transform="translate(-73.593 -134.512)" fill="#555574"/>
        <path id="Path_518" data-name="Path 518" d="M139.393,215.829a1.017,1.017,0,0,0-1.017-1.017H120.352a1.017,1.017,0,0,0,0,2.033h18.024A1.017,1.017,0,0,0,139.393,215.829Zm0,0" transform="translate(-99.169 -178.419)" fill="#555574"/>
        <path id="Path_519" data-name="Path 519" d="M89.559,216.846h1.887a1.017,1.017,0,0,0,0-2.033H89.559a1.017,1.017,0,0,0,0,2.033Zm0,0" transform="translate(-73.593 -178.419)" fill="#555574"/>
        <path id="Path_520" data-name="Path 520" d="M102.648,271.989a1.016,1.016,0,0,0-1.017-1.016H89.559a1.017,1.017,0,1,0,0,2.033h12.072A1.016,1.016,0,0,0,102.648,271.989Zm0,0" transform="translate(-73.593 -225.065)" fill="#555574"/>
        <path id="Path_521" data-name="Path 521" d="M89.559,322.875a1.017,1.017,0,0,0,0,2.033h4.88a1.017,1.017,0,0,0,0-2.033Zm0,0" transform="translate(-73.593 -268.174)" fill="#555574"/>
      </g>
      <path id="Path_522" data-name="Path 522" d="M198.162,124.831l-.988-1.5a4.344,4.344,0,0,0-6.008-1.244l-1.1.725h0l-1.944,1.279-2.033,1.336-32.129,21.111c-.016.011-.03.022-.046.034l-.028.021a1.1,1.1,0,0,0-.089.079h0a.987.987,0,0,0-.077.089l-.017.022a.952.952,0,0,0-.054.081l-.01.014-4.618,7.958-1.373.9a1.016,1.016,0,0,0,1.116,1.7l1.373-.9,9.137-1.08.016,0,.049-.009c.03-.005.059-.011.087-.019a.467.467,0,0,0,.051-.017c.028-.009.055-.019.081-.03l.05-.023c.026-.013.051-.027.075-.042s.02-.01.03-.017l37.213-24.45A4.344,4.344,0,0,0,198.162,124.831Zm-10.5,1.985h0l2.66-1.748,1.2,1.83L157.12,149.506l-1.2-1.83ZM151.671,154.3l2.893-4.985,1.415,2.154,1.415,2.153Zm7.767-1.268-1.2-1.83,34.409-22.609,1.2,1.83ZM195.8,129.141l-.255.167-3.52-5.358.255-.167a2.3,2.3,0,0,1,3.193.66l.988,1.5A2.308,2.308,0,0,1,195.8,129.141Zm0,0" transform="translate(-122.297 -100.809)" fill="#3e64ff"/>
    </g>
  </g>
</svg>
