<svg xmlns="http://www.w3.org/2000/svg" width="145" height="225" viewBox="0 0 145 225">
  <g id="Group_367" data-name="Group 367" transform="translate(-1266 -223)">
    <path id="node" d="M-822-681.5a.5.5,0,0,1,.5-.5.5.5,0,0,1,.5.5.5.5,0,0,1-.5.5A.5.5,0,0,1-822-681.5Zm-16,0a.5.5,0,0,1,.5-.5.5.5,0,0,1,.5.5.5.5,0,0,1-.5.5A.5.5,0,0,1-838-681.5Zm-16,0a.5.5,0,0,1,.5-.5.5.5,0,0,1,.5.5.5.5,0,0,1-.5.5A.5.5,0,0,1-854-681.5Zm-16,0a.5.5,0,0,1,.5-.5.5.5,0,0,1,.5.5.5.5,0,0,1-.5.5A.5.5,0,0,1-870-681.5Zm-16,0a.5.5,0,0,1,.5-.5.5.5,0,0,1,.5.5.5.5,0,0,1-.5.5A.5.5,0,0,1-886-681.5Zm-16,0a.5.5,0,0,1,.5-.5.5.5,0,0,1,.5.5.5.5,0,0,1-.5.5A.5.5,0,0,1-902-681.5Zm-16,0a.5.5,0,0,1,.5-.5.5.5,0,0,1,.5.5.5.5,0,0,1-.5.5A.5.5,0,0,1-918-681.5Zm-16,0a.5.5,0,0,1,.5-.5.5.5,0,0,1,.5.5.5.5,0,0,1-.5.5A.5.5,0,0,1-934-681.5Zm-16,0a.5.5,0,0,1,.5-.5.5.5,0,0,1,.5.5.5.5,0,0,1-.5.5A.5.5,0,0,1-950-681.5Zm-16,0a.5.5,0,0,1,.5-.5.5.5,0,0,1,.5.5.5.5,0,0,1-.5.5A.5.5,0,0,1-966-681.5Zm144-16a.5.5,0,0,1,.5-.5.5.5,0,0,1,.5.5.5.5,0,0,1-.5.5A.5.5,0,0,1-822-697.5Zm-16,0a.5.5,0,0,1,.5-.5.5.5,0,0,1,.5.5.5.5,0,0,1-.5.5A.5.5,0,0,1-838-697.5Zm-16,0a.5.5,0,0,1,.5-.5.5.5,0,0,1,.5.5.5.5,0,0,1-.5.5A.5.5,0,0,1-854-697.5Zm-16,0a.5.5,0,0,1,.5-.5.5.5,0,0,1,.5.5.5.5,0,0,1-.5.5A.5.5,0,0,1-870-697.5Zm-16,0a.5.5,0,0,1,.5-.5.5.5,0,0,1,.5.5.5.5,0,0,1-.5.5A.5.5,0,0,1-886-697.5Zm-16,0a.5.5,0,0,1,.5-.5.5.5,0,0,1,.5.5.5.5,0,0,1-.5.5A.5.5,0,0,1-902-697.5Zm-16,0a.5.5,0,0,1,.5-.5.5.5,0,0,1,.5.5.5.5,0,0,1-.5.5A.5.5,0,0,1-918-697.5Zm-16,0a.5.5,0,0,1,.5-.5.5.5,0,0,1,.5.5.5.5,0,0,1-.5.5A.5.5,0,0,1-934-697.5Zm-16,0a.5.5,0,0,1,.5-.5.5.5,0,0,1,.5.5.5.5,0,0,1-.5.5A.5.5,0,0,1-950-697.5Zm-16,0a.5.5,0,0,1,.5-.5.5.5,0,0,1,.5.5.5.5,0,0,1-.5.5A.5.5,0,0,1-966-697.5Zm144-16a.5.5,0,0,1,.5-.5.5.5,0,0,1,.5.5.5.5,0,0,1-.5.5A.5.5,0,0,1-822-713.5Zm-16,0a.5.5,0,0,1,.5-.5.5.5,0,0,1,.5.5.5.5,0,0,1-.5.5A.5.5,0,0,1-838-713.5Zm-16,0a.5.5,0,0,1,.5-.5.5.5,0,0,1,.5.5.5.5,0,0,1-.5.5A.5.5,0,0,1-854-713.5Zm-16,0a.5.5,0,0,1,.5-.5.5.5,0,0,1,.5.5.5.5,0,0,1-.5.5A.5.5,0,0,1-870-713.5Zm-16,0a.5.5,0,0,1,.5-.5.5.5,0,0,1,.5.5.5.5,0,0,1-.5.5A.5.5,0,0,1-886-713.5Zm-16,0a.5.5,0,0,1,.5-.5.5.5,0,0,1,.5.5.5.5,0,0,1-.5.5A.5.5,0,0,1-902-713.5Zm-16,0a.5.5,0,0,1,.5-.5.5.5,0,0,1,.5.5.5.5,0,0,1-.5.5A.5.5,0,0,1-918-713.5Zm-16,0a.5.5,0,0,1,.5-.5.5.5,0,0,1,.5.5.5.5,0,0,1-.5.5A.5.5,0,0,1-934-713.5Zm-16,0a.5.5,0,0,1,.5-.5.5.5,0,0,1,.5.5.5.5,0,0,1-.5.5A.5.5,0,0,1-950-713.5Zm-16,0a.5.5,0,0,1,.5-.5.5.5,0,0,1,.5.5.5.5,0,0,1-.5.5A.5.5,0,0,1-966-713.5Zm144-16a.5.5,0,0,1,.5-.5.5.5,0,0,1,.5.5.5.5,0,0,1-.5.5A.5.5,0,0,1-822-729.5Zm-16,0a.5.5,0,0,1,.5-.5.5.5,0,0,1,.5.5.5.5,0,0,1-.5.5A.5.5,0,0,1-838-729.5Zm-16,0a.5.5,0,0,1,.5-.5.5.5,0,0,1,.5.5.5.5,0,0,1-.5.5A.5.5,0,0,1-854-729.5Zm-16,0a.5.5,0,0,1,.5-.5.5.5,0,0,1,.5.5.5.5,0,0,1-.5.5A.5.5,0,0,1-870-729.5Zm-16,0a.5.5,0,0,1,.5-.5.5.5,0,0,1,.5.5.5.5,0,0,1-.5.5A.5.5,0,0,1-886-729.5Zm-16,0a.5.5,0,0,1,.5-.5.5.5,0,0,1,.5.5.5.5,0,0,1-.5.5A.5.5,0,0,1-902-729.5Zm-16,0a.5.5,0,0,1,.5-.5.5.5,0,0,1,.5.5.5.5,0,0,1-.5.5A.5.5,0,0,1-918-729.5Zm-16,0a.5.5,0,0,1,.5-.5.5.5,0,0,1,.5.5.5.5,0,0,1-.5.5A.5.5,0,0,1-934-729.5Zm-16,0a.5.5,0,0,1,.5-.5.5.5,0,0,1,.5.5.5.5,0,0,1-.5.5A.5.5,0,0,1-950-729.5Zm-16,0a.5.5,0,0,1,.5-.5.5.5,0,0,1,.5.5.5.5,0,0,1-.5.5A.5.5,0,0,1-966-729.5Zm144-16a.5.5,0,0,1,.5-.5.5.5,0,0,1,.5.5.5.5,0,0,1-.5.5A.5.5,0,0,1-822-745.5Zm-16,0a.5.5,0,0,1,.5-.5.5.5,0,0,1,.5.5.5.5,0,0,1-.5.5A.5.5,0,0,1-838-745.5Zm-16,0a.5.5,0,0,1,.5-.5.5.5,0,0,1,.5.5.5.5,0,0,1-.5.5A.5.5,0,0,1-854-745.5Zm-16,0a.5.5,0,0,1,.5-.5.5.5,0,0,1,.5.5.5.5,0,0,1-.5.5A.5.5,0,0,1-870-745.5Zm-16,0a.5.5,0,0,1,.5-.5.5.5,0,0,1,.5.5.5.5,0,0,1-.5.5A.5.5,0,0,1-886-745.5Zm-16,0a.5.5,0,0,1,.5-.5.5.5,0,0,1,.5.5.5.5,0,0,1-.5.5A.5.5,0,0,1-902-745.5Zm-16,0a.5.5,0,0,1,.5-.5.5.5,0,0,1,.5.5.5.5,0,0,1-.5.5A.5.5,0,0,1-918-745.5Zm-16,0a.5.5,0,0,1,.5-.5.5.5,0,0,1,.5.5.5.5,0,0,1-.5.5A.5.5,0,0,1-934-745.5Zm-16,0a.5.5,0,0,1,.5-.5.5.5,0,0,1,.5.5.5.5,0,0,1-.5.5A.5.5,0,0,1-950-745.5Zm-16,0a.5.5,0,0,1,.5-.5.5.5,0,0,1,.5.5.5.5,0,0,1-.5.5A.5.5,0,0,1-966-745.5Zm144-16a.5.5,0,0,1,.5-.5.5.5,0,0,1,.5.5.5.5,0,0,1-.5.5A.5.5,0,0,1-822-761.5Zm-16,0a.5.5,0,0,1,.5-.5.5.5,0,0,1,.5.5.5.5,0,0,1-.5.5A.5.5,0,0,1-838-761.5Zm-16,0a.5.5,0,0,1,.5-.5.5.5,0,0,1,.5.5.5.5,0,0,1-.5.5A.5.5,0,0,1-854-761.5Zm-16,0a.5.5,0,0,1,.5-.5.5.5,0,0,1,.5.5.5.5,0,0,1-.5.5A.5.5,0,0,1-870-761.5Zm-16,0a.5.5,0,0,1,.5-.5.5.5,0,0,1,.5.5.5.5,0,0,1-.5.5A.5.5,0,0,1-886-761.5Zm-16,0a.5.5,0,0,1,.5-.5.5.5,0,0,1,.5.5.5.5,0,0,1-.5.5A.5.5,0,0,1-902-761.5Zm-16,0a.5.5,0,0,1,.5-.5.5.5,0,0,1,.5.5.5.5,0,0,1-.5.5A.5.5,0,0,1-918-761.5Zm-16,0a.5.5,0,0,1,.5-.5.5.5,0,0,1,.5.5.5.5,0,0,1-.5.5A.5.5,0,0,1-934-761.5Zm-16,0a.5.5,0,0,1,.5-.5.5.5,0,0,1,.5.5.5.5,0,0,1-.5.5A.5.5,0,0,1-950-761.5Zm-16,0a.5.5,0,0,1,.5-.5.5.5,0,0,1,.5.5.5.5,0,0,1-.5.5A.5.5,0,0,1-966-761.5Zm144-16a.5.5,0,0,1,.5-.5.5.5,0,0,1,.5.5.5.5,0,0,1-.5.5A.5.5,0,0,1-822-777.5Zm-16,0a.5.5,0,0,1,.5-.5.5.5,0,0,1,.5.5.5.5,0,0,1-.5.5A.5.5,0,0,1-838-777.5Zm-16,0a.5.5,0,0,1,.5-.5.5.5,0,0,1,.5.5.5.5,0,0,1-.5.5A.5.5,0,0,1-854-777.5Zm-16,0a.5.5,0,0,1,.5-.5.5.5,0,0,1,.5.5.5.5,0,0,1-.5.5A.5.5,0,0,1-870-777.5Zm-16,0a.5.5,0,0,1,.5-.5.5.5,0,0,1,.5.5.5.5,0,0,1-.5.5A.5.5,0,0,1-886-777.5Zm-16,0a.5.5,0,0,1,.5-.5.5.5,0,0,1,.5.5.5.5,0,0,1-.5.5A.5.5,0,0,1-902-777.5Zm-16,0a.5.5,0,0,1,.5-.5.5.5,0,0,1,.5.5.5.5,0,0,1-.5.5A.5.5,0,0,1-918-777.5Zm-16,0a.5.5,0,0,1,.5-.5.5.5,0,0,1,.5.5.5.5,0,0,1-.5.5A.5.5,0,0,1-934-777.5Zm-16,0a.5.5,0,0,1,.5-.5.5.5,0,0,1,.5.5.5.5,0,0,1-.5.5A.5.5,0,0,1-950-777.5Zm-16,0a.5.5,0,0,1,.5-.5.5.5,0,0,1,.5.5.5.5,0,0,1-.5.5A.5.5,0,0,1-966-777.5Zm144-16a.5.5,0,0,1,.5-.5.5.5,0,0,1,.5.5.5.5,0,0,1-.5.5A.5.5,0,0,1-822-793.5Zm-16,0a.5.5,0,0,1,.5-.5.5.5,0,0,1,.5.5.5.5,0,0,1-.5.5A.5.5,0,0,1-838-793.5Zm-16,0a.5.5,0,0,1,.5-.5.5.5,0,0,1,.5.5.5.5,0,0,1-.5.5A.5.5,0,0,1-854-793.5Zm-16,0a.5.5,0,0,1,.5-.5.5.5,0,0,1,.5.5.5.5,0,0,1-.5.5A.5.5,0,0,1-870-793.5Zm-16,0a.5.5,0,0,1,.5-.5.5.5,0,0,1,.5.5.5.5,0,0,1-.5.5A.5.5,0,0,1-886-793.5Zm-16,0a.5.5,0,0,1,.5-.5.5.5,0,0,1,.5.5.5.5,0,0,1-.5.5A.5.5,0,0,1-902-793.5Zm-16,0a.5.5,0,0,1,.5-.5.5.5,0,0,1,.5.5.5.5,0,0,1-.5.5A.5.5,0,0,1-918-793.5Zm-16,0a.5.5,0,0,1,.5-.5.5.5,0,0,1,.5.5.5.5,0,0,1-.5.5A.5.5,0,0,1-934-793.5Zm-16,0a.5.5,0,0,1,.5-.5.5.5,0,0,1,.5.5.5.5,0,0,1-.5.5A.5.5,0,0,1-950-793.5Zm-16,0a.5.5,0,0,1,.5-.5.5.5,0,0,1,.5.5.5.5,0,0,1-.5.5A.5.5,0,0,1-966-793.5Zm144-16a.5.5,0,0,1,.5-.5.5.5,0,0,1,.5.5.5.5,0,0,1-.5.5A.5.5,0,0,1-822-809.5Zm-16,0a.5.5,0,0,1,.5-.5.5.5,0,0,1,.5.5.5.5,0,0,1-.5.5A.5.5,0,0,1-838-809.5Zm-16,0a.5.5,0,0,1,.5-.5.5.5,0,0,1,.5.5.5.5,0,0,1-.5.5A.5.5,0,0,1-854-809.5Zm-16,0a.5.5,0,0,1,.5-.5.5.5,0,0,1,.5.5.5.5,0,0,1-.5.5A.5.5,0,0,1-870-809.5Zm-16,0a.5.5,0,0,1,.5-.5.5.5,0,0,1,.5.5.5.5,0,0,1-.5.5A.5.5,0,0,1-886-809.5Zm-16,0a.5.5,0,0,1,.5-.5.5.5,0,0,1,.5.5.5.5,0,0,1-.5.5A.5.5,0,0,1-902-809.5Zm-16,0a.5.5,0,0,1,.5-.5.5.5,0,0,1,.5.5.5.5,0,0,1-.5.5A.5.5,0,0,1-918-809.5Zm-16,0a.5.5,0,0,1,.5-.5.5.5,0,0,1,.5.5.5.5,0,0,1-.5.5A.5.5,0,0,1-934-809.5Zm-16,0a.5.5,0,0,1,.5-.5.5.5,0,0,1,.5.5.5.5,0,0,1-.5.5A.5.5,0,0,1-950-809.5Zm-16,0a.5.5,0,0,1,.5-.5.5.5,0,0,1,.5.5.5.5,0,0,1-.5.5A.5.5,0,0,1-966-809.5Zm144-16a.5.5,0,0,1,.5-.5.5.5,0,0,1,.5.5.5.5,0,0,1-.5.5A.5.5,0,0,1-822-825.5Zm-16,0a.5.5,0,0,1,.5-.5.5.5,0,0,1,.5.5.5.5,0,0,1-.5.5A.5.5,0,0,1-838-825.5Zm-16,0a.5.5,0,0,1,.5-.5.5.5,0,0,1,.5.5.5.5,0,0,1-.5.5A.5.5,0,0,1-854-825.5Zm-16,0a.5.5,0,0,1,.5-.5.5.5,0,0,1,.5.5.5.5,0,0,1-.5.5A.5.5,0,0,1-870-825.5Zm-16,0a.5.5,0,0,1,.5-.5.5.5,0,0,1,.5.5.5.5,0,0,1-.5.5A.5.5,0,0,1-886-825.5Zm-16,0a.5.5,0,0,1,.5-.5.5.5,0,0,1,.5.5.5.5,0,0,1-.5.5A.5.5,0,0,1-902-825.5Zm-16,0a.5.5,0,0,1,.5-.5.5.5,0,0,1,.5.5.5.5,0,0,1-.5.5A.5.5,0,0,1-918-825.5Zm-16,0a.5.5,0,0,1,.5-.5.5.5,0,0,1,.5.5.5.5,0,0,1-.5.5A.5.5,0,0,1-934-825.5Zm-16,0a.5.5,0,0,1,.5-.5.5.5,0,0,1,.5.5.5.5,0,0,1-.5.5A.5.5,0,0,1-950-825.5Zm-16,0a.5.5,0,0,1,.5-.5.5.5,0,0,1,.5.5.5.5,0,0,1-.5.5A.5.5,0,0,1-966-825.5Zm144-16a.5.5,0,0,1,.5-.5.5.5,0,0,1,.5.5.5.5,0,0,1-.5.5A.5.5,0,0,1-822-841.5Zm-16,0a.5.5,0,0,1,.5-.5.5.5,0,0,1,.5.5.5.5,0,0,1-.5.5A.5.5,0,0,1-838-841.5Zm-16,0a.5.5,0,0,1,.5-.5.5.5,0,0,1,.5.5.5.5,0,0,1-.5.5A.5.5,0,0,1-854-841.5Zm-16,0a.5.5,0,0,1,.5-.5.5.5,0,0,1,.5.5.5.5,0,0,1-.5.5A.5.5,0,0,1-870-841.5Zm-16,0a.5.5,0,0,1,.5-.5.5.5,0,0,1,.5.5.5.5,0,0,1-.5.5A.5.5,0,0,1-886-841.5Zm-16,0a.5.5,0,0,1,.5-.5.5.5,0,0,1,.5.5.5.5,0,0,1-.5.5A.5.5,0,0,1-902-841.5Zm-16,0a.5.5,0,0,1,.5-.5.5.5,0,0,1,.5.5.5.5,0,0,1-.5.5A.5.5,0,0,1-918-841.5Zm-16,0a.5.5,0,0,1,.5-.5.5.5,0,0,1,.5.5.5.5,0,0,1-.5.5A.5.5,0,0,1-934-841.5Zm-16,0a.5.5,0,0,1,.5-.5.5.5,0,0,1,.5.5.5.5,0,0,1-.5.5A.5.5,0,0,1-950-841.5Zm-16,0a.5.5,0,0,1,.5-.5.5.5,0,0,1,.5.5.5.5,0,0,1-.5.5A.5.5,0,0,1-966-841.5Zm144-16a.5.5,0,0,1,.5-.5.5.5,0,0,1,.5.5.5.5,0,0,1-.5.5A.5.5,0,0,1-822-857.5Zm-16,0a.5.5,0,0,1,.5-.5.5.5,0,0,1,.5.5.5.5,0,0,1-.5.5A.5.5,0,0,1-838-857.5Zm-16,0a.5.5,0,0,1,.5-.5.5.5,0,0,1,.5.5.5.5,0,0,1-.5.5A.5.5,0,0,1-854-857.5Zm-16,0a.5.5,0,0,1,.5-.5.5.5,0,0,1,.5.5.5.5,0,0,1-.5.5A.5.5,0,0,1-870-857.5Zm-16,0a.5.5,0,0,1,.5-.5.5.5,0,0,1,.5.5.5.5,0,0,1-.5.5A.5.5,0,0,1-886-857.5Zm-16,0a.5.5,0,0,1,.5-.5.5.5,0,0,1,.5.5.5.5,0,0,1-.5.5A.5.5,0,0,1-902-857.5Zm-16,0a.5.5,0,0,1,.5-.5.5.5,0,0,1,.5.5.5.5,0,0,1-.5.5A.5.5,0,0,1-918-857.5Zm-16,0a.5.5,0,0,1,.5-.5.5.5,0,0,1,.5.5.5.5,0,0,1-.5.5A.5.5,0,0,1-934-857.5Zm-16,0a.5.5,0,0,1,.5-.5.5.5,0,0,1,.5.5.5.5,0,0,1-.5.5A.5.5,0,0,1-950-857.5Zm-16,0a.5.5,0,0,1,.5-.5.5.5,0,0,1,.5.5.5.5,0,0,1-.5.5A.5.5,0,0,1-966-857.5Zm144-16a.5.5,0,0,1,.5-.5.5.5,0,0,1,.5.5.5.5,0,0,1-.5.5A.5.5,0,0,1-822-873.5Zm-16,0a.5.5,0,0,1,.5-.5.5.5,0,0,1,.5.5.5.5,0,0,1-.5.5A.5.5,0,0,1-838-873.5Zm-16,0a.5.5,0,0,1,.5-.5.5.5,0,0,1,.5.5.5.5,0,0,1-.5.5A.5.5,0,0,1-854-873.5Zm-16,0a.5.5,0,0,1,.5-.5.5.5,0,0,1,.5.5.5.5,0,0,1-.5.5A.5.5,0,0,1-870-873.5Zm-16,0a.5.5,0,0,1,.5-.5.5.5,0,0,1,.5.5.5.5,0,0,1-.5.5A.5.5,0,0,1-886-873.5Zm-16,0a.5.5,0,0,1,.5-.5.5.5,0,0,1,.5.5.5.5,0,0,1-.5.5A.5.5,0,0,1-902-873.5Zm-16,0a.5.5,0,0,1,.5-.5.5.5,0,0,1,.5.5.5.5,0,0,1-.5.5A.5.5,0,0,1-918-873.5Zm-16,0a.5.5,0,0,1,.5-.5.5.5,0,0,1,.5.5.5.5,0,0,1-.5.5A.5.5,0,0,1-934-873.5Zm-16,0a.5.5,0,0,1,.5-.5.5.5,0,0,1,.5.5.5.5,0,0,1-.5.5A.5.5,0,0,1-950-873.5Zm-16,0a.5.5,0,0,1,.5-.5.5.5,0,0,1,.5.5.5.5,0,0,1-.5.5A.5.5,0,0,1-966-873.5Zm144-16a.5.5,0,0,1,.5-.5.5.5,0,0,1,.5.5.5.5,0,0,1-.5.5A.5.5,0,0,1-822-889.5Zm-16,0a.5.5,0,0,1,.5-.5.5.5,0,0,1,.5.5.5.5,0,0,1-.5.5A.5.5,0,0,1-838-889.5Zm-16,0a.5.5,0,0,1,.5-.5.5.5,0,0,1,.5.5.5.5,0,0,1-.5.5A.5.5,0,0,1-854-889.5Zm-16,0a.5.5,0,0,1,.5-.5.5.5,0,0,1,.5.5.5.5,0,0,1-.5.5A.5.5,0,0,1-870-889.5Zm-16,0a.5.5,0,0,1,.5-.5.5.5,0,0,1,.5.5.5.5,0,0,1-.5.5A.5.5,0,0,1-886-889.5Zm-16,0a.5.5,0,0,1,.5-.5.5.5,0,0,1,.5.5.5.5,0,0,1-.5.5A.5.5,0,0,1-902-889.5Zm-16,0a.5.5,0,0,1,.5-.5.5.5,0,0,1,.5.5.5.5,0,0,1-.5.5A.5.5,0,0,1-918-889.5Zm-16,0a.5.5,0,0,1,.5-.5.5.5,0,0,1,.5.5.5.5,0,0,1-.5.5A.5.5,0,0,1-934-889.5Zm-16,0a.5.5,0,0,1,.5-.5.5.5,0,0,1,.5.5.5.5,0,0,1-.5.5A.5.5,0,0,1-950-889.5Zm-16,0a.5.5,0,0,1,.5-.5.5.5,0,0,1,.5.5.5.5,0,0,1-.5.5A.5.5,0,0,1-966-889.5Zm144-16a.5.5,0,0,1,.5-.5.5.5,0,0,1,.5.5.5.5,0,0,1-.5.5A.5.5,0,0,1-822-905.5Zm-16,0a.5.5,0,0,1,.5-.5.5.5,0,0,1,.5.5.5.5,0,0,1-.5.5A.5.5,0,0,1-838-905.5Zm-16,0a.5.5,0,0,1,.5-.5.5.5,0,0,1,.5.5.5.5,0,0,1-.5.5A.5.5,0,0,1-854-905.5Zm-16,0a.5.5,0,0,1,.5-.5.5.5,0,0,1,.5.5.5.5,0,0,1-.5.5A.5.5,0,0,1-870-905.5Zm-16,0a.5.5,0,0,1,.5-.5.5.5,0,0,1,.5.5.5.5,0,0,1-.5.5A.5.5,0,0,1-886-905.5Zm-16,0a.5.5,0,0,1,.5-.5.5.5,0,0,1,.5.5.5.5,0,0,1-.5.5A.5.5,0,0,1-902-905.5Zm-16,0a.5.5,0,0,1,.5-.5.5.5,0,0,1,.5.5.5.5,0,0,1-.5.5A.5.5,0,0,1-918-905.5Zm-16,0a.5.5,0,0,1,.5-.5.5.5,0,0,1,.5.5.5.5,0,0,1-.5.5A.5.5,0,0,1-934-905.5Zm-16,0a.5.5,0,0,1,.5-.5.5.5,0,0,1,.5.5.5.5,0,0,1-.5.5A.5.5,0,0,1-950-905.5Zm-16,0a.5.5,0,0,1,.5-.5.5.5,0,0,1,.5.5.5.5,0,0,1-.5.5A.5.5,0,0,1-966-905.5Z" transform="translate(2232 1129)"/>
  </g>
</svg>
