<svg xmlns="http://www.w3.org/2000/svg" width="60" height="56" viewBox="0 0 60 56">
  <g id="Group_395" data-name="Group 395" transform="translate(-218 -33)">
    <rect id="Rectangle_213" data-name="Rectangle 213" width="60" height="56" rx="10" transform="translate(218 33)" fill="#3ce5b7"/>
    <g id="Group_380" data-name="Group 380" transform="translate(-741.839 -357)">
      <path id="Path_28" data-name="Path 28" d="M1003.285,404.9a4.1,4.1,0,0,0-4.357-.957l-17.436,6.424a4.139,4.139,0,0,0-.145,7.71l5.379,2.215a2.157,2.157,0,0,1,1.167,1.167l2.215,5.38a4.111,4.111,0,0,0,3.824,2.562h.08a4.113,4.113,0,0,0,3.806-2.707l6.424-17.436A4.1,4.1,0,0,0,1003.285,404.9Zm-.915,3.667L995.947,426a2.144,2.144,0,0,1-4,.075l-2.215-5.379a4.164,4.164,0,0,0-2.251-2.252l-5.379-2.215a2.144,2.144,0,0,1,.076-4l17.435-6.424a2.206,2.206,0,0,1,.762-.139,2.154,2.154,0,0,1,1.991,2.892Z" transform="translate(-0.859 0)" fill="#004275"/>
      <path id="Path_29" data-name="Path 29" d="M978.013,435.7a1,1,0,0,0,.743-.332l2.682-2.994a1,1,0,0,0-1.485-1.331l-2.683,2.994a1,1,0,0,0,.742,1.662Z" transform="translate(-0.267 -9.065)" fill="#004275"/>
      <path id="Path_30" data-name="Path 30" d="M981.8,439.376l-5.346,6.436a1,1,0,0,0,1.535,1.274l5.346-6.436a1,1,0,1,0-1.535-1.274Z" transform="translate(0 -11.85)" fill="#004275"/>
    </g>
  </g>
</svg>
