<svg xmlns="http://www.w3.org/2000/svg" width="93.421" height="65.854" viewBox="0 0 93.421 65.854">
  <g id="Group_392" data-name="Group 392" transform="translate(-8.259 -8.71)">
    <circle id="Ellipse_258" data-name="Ellipse 258" cx="32.927" cy="32.927" r="32.927" transform="translate(35.826 8.71)" fill="#3e64ff" opacity="0.08"/>
    <g id="user" transform="translate(-46.845 -43.731)">
      <path id="Path_661" data-name="Path 661" d="M86.557,120.368A27.162,27.162,0,0,1,103.462,74.1c-.761-.063-1.529-.1-2.3-.1a27.162,27.162,0,0,0,0,54.324c.773,0,1.54-.034,2.3-.1a26.958,26.958,0,0,1-16.905-7.858Z" transform="translate(-15.997 -15.987)" fill="#d4e1f4"/>
      <path id="Path_662" data-name="Path 662" d="M151.481,129.764a11.411,11.411,0,0,0,4.992-1.145l7.659,2.483a4.656,4.656,0,0,1,3.1,3.169q.024.088.045.176a4.321,4.321,0,0,1,.1.99v3.822h2.148v-3.822a6.432,6.432,0,0,0-.16-1.478q-.031-.129-.065-.257a6.8,6.8,0,0,0-4.505-4.643l-7.351-2.383v-3.037a11.31,11.31,0,0,0,5.149-7.471l.393-1.353a3.841,3.841,0,0,0,2.378-4.508,3.12,3.12,0,0,0-1.815-2.149V103.39a12.065,12.065,0,1,0-24.131,0v4.766a3.121,3.121,0,0,0-1.82,2.151,3.841,3.841,0,0,0,2.378,4.507l.393,1.353a11.311,11.311,0,0,0,5.149,7.471v3.037l-7.351,2.383a6.8,6.8,0,0,0-4.505,4.642q-.035.128-.066.257a6.436,6.436,0,0,0-.16,1.478v3.822h2.148v-3.822a4.317,4.317,0,0,1,.1-.989q.02-.089.045-.177a4.656,4.656,0,0,1,3.1-3.169l7.659-2.483A11.407,11.407,0,0,0,151.481,129.764Zm.848-25.8a14.662,14.662,0,0,0,6.779,3.763,23.418,23.418,0,0,1-9.539-3.218Q151.018,104.291,152.328,103.967Zm-10.763-.578a9.918,9.918,0,1,1,19.836,0V106a13.43,13.43,0,0,1-6.669-2.745,16.957,16.957,0,0,0,4.662-2.454,1.074,1.074,0,1,0-1.307-1.7c-5.381,4.127-15.043,3.691-15.139,3.687a1.074,1.074,0,0,0-1.128,1.024l-.182,3.991a.388.388,0,0,1-.073.216Zm.905,12.329a1.031,1.031,0,0,0-.024-.1l-.545-1.877a1.074,1.074,0,0,0-.87-.855,1.685,1.685,0,0,1-1.4-1.663,1.7,1.7,0,0,1,.048-.4.972.972,0,0,1,.589-.686,2.547,2.547,0,0,0,3.511-2.24l.134-2.947c.622,0,1.482-.019,2.5-.088,6.531,5.523,15.705,5.237,16.1,5.221h.01a.989.989,0,0,1,.752.741,1.691,1.691,0,0,1-1.347,2.067,1.074,1.074,0,0,0-.869.855l-.546,1.877a1.038,1.038,0,0,0-.024.1,9.169,9.169,0,0,1-18.022,0Zm9.011,9.622a11.281,11.281,0,0,0,3.815-.663V126.8a9.307,9.307,0,0,1-7.63,0v-2.122a11.281,11.281,0,0,0,3.814.663Z" transform="translate(-66.316 -30.654)" fill="#3e64ff"/>
      <path id="Path_663" data-name="Path 663" d="M106.955,105.231a29.613,29.613,0,1,0-42.737-41,29.614,29.614,0,1,0,41,42.739l8.98,8.979a1.227,1.227,0,1,0,1.736-1.736Zm-41-.85a27.163,27.163,0,1,1,38.594-.186,1.215,1.215,0,0,0-.367.367,27.158,27.158,0,0,1-38.227-.181Z" transform="translate(0)" fill="#555574"/>
    </g>
  </g>
</svg>
